# xmcd
#
# Track frame offsets:
# 150
# 15567
# 35040
# 51663
# 64461
# 85434
# 102507
# 123030
# 136428
# 153951
# 169524
# 183372
# 201795
# 216693
# 235116
# 253689
# 271812
# 294735
#
# Disc length: 4134 seconds
#
#
# Revision: 0
# Processed by: cddbd v1.5.2PL0 Copyright (c) Steve Scherf et al.
# Submitted via: FreeRIP 2.40 
#
DISCID=13102412
DTITLE=Diversen - OLON country special
DYEAR=2008
DGENRE=Country
TTITLE0=Pinchitos Caliente - Chiquita
TTITLE1=Hans Venneman - The song of Don and Phil
TTITLE2=Cash on delivery - Echoes of leaving
TTITLE3=Four wheel drive - Hiliblly twist
TTITLE4=Casper Eekhof - When my singing is done
TTITLE5=Calyx - the Road
TTITLE6=Change of key - Fly on my emotions
TTITLE7=Colonel Hammond's four - Prayer
TTITLE8=Sandra Vanreys - Oldtime manners
TTITLE9=Except-2 - Hey you
TTITLE10=Savannah - Alle dromen
TTITLE11=Windfall - I feel free
TTITLE12=Dixie Aces - Mystery moment
TTITLE13=Ben Steneker - Lonesome road
TTITLE14=Leon Pries and Ruud Hermans - Just like 25 years ago
TTITLE15=Nick McAlley - You take me back
TTITLE16=Ruud Hermans and Dick van Altena - Tell it to you
TTITLE17=Tenderfeet - Ballad of us
EXTD=R794
EXTT0=
EXTT1=
EXTT2=
EXTT3=
EXTT4=
EXTT5=
EXTT6=
EXTT7=
EXTT8=
EXTT9=
EXTT10=
EXTT11=
EXTT12=
EXTT13=
EXTT14=
EXTT15=
EXTT16=
EXTT17=
PLAYORDER=
